# xmcd CD database file
#
# Track frame offsets:
#	183
#	13203
#	32170
#	49513
#	69045
#	88928
#	109710
#	137608
#	156275
#	171948
#	185180
#	204440
#	224083
#	244810
#	263453
#	278140
#
# Disc length: 3761 seconds
#
# Revision: 10
# Processed by: cddbd v1.5.2PL0 Copyright (c) Steve Scherf et al.
# Submitted via: CDex 1.70beta2
#
DISCID=e80eaf10
DTITLE=Michal Tučný - Snídaně v trávě
DYEAR=1993
DGENRE=Country
TTITLE0=Snídaně v trávě
TTITLE1=Báječná ženská
TTITLE2=Tam u nebeských bran
TTITLE3=Všichni jsou už v Mexiku
TTITLE4=Karolína
TTITLE5=Modrá z džin
TTITLE6=Jak chcete žít bez koní
TTITLE7=Pověste ho vejš
TTITLE8=Chtěl bych být medvídkem
TTITLE9=Tak už nefňukej
TTITLE10=Starýho psa novým kouskům nenaučíš
TTITLE11=Medicinman
TTITLE12=Kosmickej vandr
TTITLE13=Dám sbohem řekám
TTITLE14=Spím v obilí
TTITLE15=Poslední kovboj
EXTD=Supraphon YEAR: 1993
EXTT0=
EXTT1=
EXTT2=
EXTT3=
EXTT4=
EXTT5=
EXTT6=
EXTT7=
EXTT8=
EXTT9=
EXTT10=
EXTT11=
EXTT12=
EXTT13=
EXTT14=
EXTT15=
PLAYORDER=
